<?xml version="1.0" encoding="UTF-8" standalone="no"?>
<!-- Created with Inkscape (http://www.inkscape.org/) -->

<svg
   width="198.62mm"
   height="52.970001mm"
   viewBox="0 0 198.61997 52.970003"
   version="1.1"
   id="svg246"
   inkscape:version="1.2.2 (1:1.2.2+202212051551+b0a8486541)"
   sodipodi:docname="logo_rectangular.svg"
   inkscape:export-filename="logo_rectangular.png"
   inkscape:export-xdpi="300"
   inkscape:export-ydpi="300"
   xmlns:inkscape="http://www.inkscape.org/namespaces/inkscape"
   xmlns:sodipodi="http://sodipodi.sourceforge.net/DTD/sodipodi-0.dtd"
   xmlns="http://www.w3.org/2000/svg"
   xmlns:svg="http://www.w3.org/2000/svg">
  <sodipodi:namedview
     id="namedview248"
     pagecolor="#ffffff"
     bordercolor="#666666"
     borderopacity="1.0"
     inkscape:showpageshadow="2"
     inkscape:pageopacity="0.0"
     inkscape:pagecheckerboard="true"
     inkscape:deskcolor="#d1d1d1"
     inkscape:document-units="mm"
     showgrid="true"
     inkscape:zoom="1.0811567"
     inkscape:cx="200.71096"
     inkscape:cy="208.57291"
     inkscape:window-width="1920"
     inkscape:window-height="1016"
     inkscape:window-x="0"
     inkscape:window-y="27"
     inkscape:window-maximized="1"
     inkscape:current-layer="g294"
     inkscape:pageshadow="2"
     showguides="true"
     inkscape:guide-bbox="true">
    <sodipodi:guide
       position="-44.53405,66.48331"
       orientation="0.70710678,-0.70710678"
       id="guide28"
       inkscape:locked="false" />
    <sodipodi:guide
       position="-10.663196,45.998151"
       orientation="0,-1"
       id="guide30"
       inkscape:locked="false" />
    <sodipodi:guide
       position="-47.005253,-10.618238"
       orientation="-0.70710678,-0.70710678"
       id="guide32"
       inkscape:locked="false" />
    <sodipodi:guide
       position="126.68741,18.391136"
       orientation="0,-1"
       id="guide34"
       inkscape:locked="false" />
  </sodipodi:namedview>
  <defs
     id="defs243" />
  <g
     inkscape:label="Layer 1"
     inkscape:groupmode="layer"
     id="layer1"
     transform="translate(-61.607563,-79.502686)">
    <g
       id="g294"
       transform="translate(1.4117747,0.96873348)">
      <g
         id="g5495"
         transform="translate(5.0001761,4.9998926)">
        <g
           id="g271"
           transform="matrix(1.437231,0,0,1.437231,-38.44618,-41.135094)">
          <g
             id="g446"
             transform="translate(-39.687502,4.5291376)">
            <path
               id="path23769-3-1-5"
               style="fill:#ffffff;fill-opacity:1;stroke:#000000;stroke-width:0.79375;stroke-linecap:round;stroke-dasharray:none;paint-order:markers fill stroke"
               d="m 121.94689,79.131351 c -0.7329,0 -1.32292,0.590024 -1.32292,1.322917 v 1.617472 a 12.085943,12.085943 0 0 0 -3.70572,1.518771 l -1.13223,-1.132231 c -0.51823,-0.518233 -1.35244,-0.518233 -1.87068,0 l -1.87069,1.870687 c -0.51824,0.518234 -0.51824,1.352453 0,1.870687 l 1.09089,1.090889 a 12.085943,12.085943 0 0 0 -1.61231,3.747058 h -1.48259 c -0.7329,0 -1.32292,0.590025 -1.32292,1.322917 v 2.645833 c 0,0.732892 0.59002,1.322917 1.32292,1.322917 h 1.40405 a 12.085943,12.085943 0 0 0 1.55236,3.885552 l -0.9524,0.9524 c -0.51824,0.51824 -0.51824,1.35244 0,1.87068 l 1.87069,1.87069 c 0.51824,0.51824 1.35245,0.51824 1.87068,0 l 0.91106,-0.91106 a 12.085943,12.085943 0 0 0 3.92689,1.65675 v 1.25832 c 0,0.73289 0.59002,1.32292 1.32292,1.32292 h 2.64583 c 0.73289,0 1.32292,-0.59003 1.32292,-1.32292 v -1.25832 a 12.085943,12.085943 0 0 0 3.92689,-1.65675 l 0.91106,0.91106 c 0.51824,0.51824 1.35245,0.51824 1.87068,0 l 1.87069,-1.87069 c 0.51823,-0.51824 0.51823,-1.35244 0,-1.87068 l -0.9524,-0.9524 a 12.085943,12.085943 0 0 0 1.55236,-3.885552 h 1.40405 c 0.73289,0 1.32292,-0.590025 1.32292,-1.322917 v -2.645833 c 0,-0.732892 -0.59003,-1.322917 -1.32292,-1.322917 h -1.47898 a 12.085943,12.085943 0 0 0 -1.61179,-3.751192 l 1.08676,-1.086755 c 0.51823,-0.518234 0.51823,-1.352453 0,-1.870687 l -1.87069,-1.870687 c -0.51823,-0.518233 -1.35244,-0.518233 -1.87068,0 l -1.12707,1.127063 a 12.085943,12.085943 0 0 0 -3.71088,-1.514119 v -1.616956 c 0,-0.732893 -0.59003,-1.322917 -1.32292,-1.322917 z m 1.32291,6.614584 a 7.9374948,7.9374976 0 0 1 7.9375,7.9375 7.9374948,7.9374976 0 0 1 -7.9375,7.937495 7.9374948,7.9374976 0 0 1 -7.9375,-7.937495 7.9374948,7.9374976 0 0 1 7.9375,-7.9375 z" />
            <g
               id="g1138-7-4-3"
               style="stroke-linecap:round"
               transform="translate(38.712158,5.6316704)">
              <path
                 class="cls-3"
                 d="m 85.606527,83.663651 a 0.46566666,0.46566666 0 1 0 0.465666,0.465666 0.46302083,0.46302083 0 0 0 -0.465666,-0.465666 z"
                 id="path24-5-9-5"
                 style="fill:#ee4890;stroke-width:0.264583;stroke-linecap:round" />
              <path
                 d="m 85.606527,82.803755 a 1.3229166,1.3229166 0 1 0 1.322916,1.322916 1.3229166,1.3229166 0 0 0 -1.322916,-1.322916 z m 0,1.788583 a 0.46566666,0.46566666 0 1 1 0.465666,-0.463021 0.46302083,0.46302083 0 0 1 -0.465666,0.463021 z"
                 id="path26-3-2-6"
                 style="stroke-width:0.264583;stroke-linecap:round" />
              <path
                 class="cls-4"
                 d="m 86.717777,91.516484 a 0.46566666,0.46566666 0 1 0 0.463021,0.463021 0.46302083,0.46302083 0 0 0 -0.463021,-0.463021 z"
                 id="path28-5-0-2"
                 style="fill:#ffcc66;stroke-width:0.264583;stroke-linecap:round" />
              <path
                 d="m 86.717777,90.653942 a 1.3229166,1.3229166 0 1 0 1.322916,1.322917 1.3229166,1.3229166 0 0 0 -1.322916,-1.322917 z m 0,1.788583 a 0.46566666,0.46566666 0 1 1 0.463021,-0.465666 0.46566666,0.46566666 0 0 1 -0.463021,0.465666 z"
                 id="path30-6-6-9"
                 style="stroke-width:0.264583;stroke-linecap:round" />
              <path
                 class="cls-2"
                 d="m 83.122089,85.764442 a 0.45508333,0.45508333 0 0 0 -0.230187,-0.264583 0.46831249,0.46831249 0 0 0 -0.203729,-0.04762 0.40745833,0.40745833 0 0 0 -0.148167,0.02646 4.3471041,4.3471041 0 0 0 -2.627313,2.521479 v 0 a 4.1909999,4.1909999 0 0 0 -0.0291,2.542646 0.46302083,0.46302083 0 0 0 0.566209,0.322792 0.45243749,0.45243749 0 0 0 0.277812,-0.214313 0.46037499,0.46037499 0 0 0 0.04498,-0.34925 c -0.624416,-2.323041 0.997479,-3.577166 2.06375,-3.952875 a 0.46037499,0.46037499 0 0 0 0.28575,-0.584729 z"
                 id="path32-2-8-1"
                 style="fill:#2ab675;stroke-width:0.264583;stroke-linecap:round" />
              <path
                 d="m 83.937006,85.489276 a 1.3229166,1.3229166 0 0 0 -1.672167,-0.8255 c -1.095375,0.373062 -2.577041,1.394354 -3.175,3.048 a 5.0456041,5.0456041 0 0 0 -0.04762,3.058583 1.3229166,1.3229166 0 0 0 1.275292,0.971021 1.2805833,1.2805833 0 0 0 0.343958,-0.04498 1.3229166,1.3229166 0 0 0 0.928688,-1.621895 c -0.563563,-2.06375 1.166812,-2.788709 1.518708,-2.910417 a 1.3229166,1.3229166 0 0 0 0.828146,-1.674812 z m -1.100667,0.859895 c -1.058333,0.375709 -2.69875,1.629834 -2.066396,3.952875 a 0.46037499,0.46037499 0 0 1 -0.04498,0.34925 0.45243749,0.45243749 0 0 1 -0.277812,0.214313 0.46302083,0.46302083 0 0 1 -0.563563,-0.322792 4.1909999,4.1909999 0 0 1 0.03175,-2.542646 v 0 a 4.3471041,4.3471041 0 0 1 2.614084,-2.521479 0.40745833,0.40745833 0 0 1 0.148166,-0.02646 0.46831249,0.46831249 0 0 1 0.203729,0.04762 0.45508333,0.45508333 0 0 1 0.230188,0.264583 0.46037499,0.46037499 0 0 1 -0.275167,0.584729 z"
                 id="path34-9-9-2"
                 style="stroke-width:0.264583;stroke-linecap:round" />
              <path
                 class="cls-5"
                 d="m 89.202214,87.984296 a 4.5719999,4.5719999 0 0 0 -2.201333,-0.574145 3.8047083,3.8047083 0 0 0 -1.426104,0.264583 4.1962916,4.1962916 0 0 0 -1.928813,1.658937 0.46037499,0.46037499 0 0 0 0.129646,0.637646 0.46302083,0.46302083 0 0 0 0.637646,-0.129646 c 1.322917,-2.010833 3.344333,-1.613958 4.331229,-1.058333 a 0.46037499,0.46037499 0 1 0 0.457729,-0.79375 z"
                 id="path36-1-2-7"
                 style="fill:#74d1f6;stroke-width:0.264583;stroke-linecap:round" />
              <path
                 d="m 89.630839,87.238171 c -1.002771,-0.574145 -2.749021,-1.013354 -4.378854,-0.357187 a 5.0614791,5.0614791 0 0 0 -2.325687,1.989666 1.3229166,1.3229166 0 0 0 0.375708,1.828271 1.3043958,1.3043958 0 0 0 0.724958,0.219604 1.3229166,1.3229166 0 0 0 0.264584,-0.02646 1.3229166,1.3229166 0 0 0 0.836083,-0.568854 c 1.177396,-1.785937 2.865437,-0.968375 3.175,-0.79375 a 1.3240334,1.3240334 0 0 0 1.322916,-2.293937 z m -0.264583,1.373188 a 0.46566666,0.46566666 0 0 1 -0.629709,0.171979 c -0.986895,-0.550333 -3.005666,-0.947208 -4.331229,1.058333 a 0.46302083,0.46302083 0 0 1 -0.637645,0.129646 0.46037499,0.46037499 0 0 1 -0.129646,-0.637646 4.1962916,4.1962916 0 0 1 1.928812,-1.658937 3.8047083,3.8047083 0 0 1 1.426104,-0.264583 4.5719999,4.5719999 0 0 1 2.201334,0.574145 0.46302083,0.46302083 0 0 1 0.179916,0.621771 z"
                 id="path38-2-6-0"
                 style="stroke-width:0.264583;stroke-linecap:round" />
            </g>
          </g>
        </g>
        <text
           xml:space="preserve"
           style="font-size:38.8056px;line-height:1.25;font-family:'Comic Sans MS';-inkscape-font-specification:'Comic Sans MS';stroke-width:0.264583"
           x="105.97205"
           y="112.82295"
           id="text327"><tspan
             sodipodi:role="line"
             id="tspan325"
             style="font-style:normal;font-variant:normal;font-weight:normal;font-stretch:normal;font-size:38.8056px;font-family:'Varela Round';-inkscape-font-specification:'Varela Round';stroke-width:0.264583"
             x="105.97205"
             y="112.82295">amdirt</tspan></text>
        <path
           style="fill:#ffffff;stroke-width:0.862326"
           d="m 43.116313,144.43965 c -1.331777,-1.33178 -1.724653,-2.87442 -1.724653,-6.77193 v -5.04727 l -7.198843,-2.34175 c -3.959364,-1.28796 -9.295008,-3.61524 -11.856986,-5.17173 l -4.658143,-2.82997 -4.059107,3.75155 c -2.359452,2.18068 -4.8960397,3.75155 -6.0578656,3.75155 -2.7129103,0 -14.4593255,-11.78042 -14.4593255,-14.50119 0,-1.12627 1.6273037,-3.69661 3.8338534,-6.0556 l 3.83385428,-4.09869 -1.93915528,-3.41394 C -3.6023964,97.428466 -6.5902034,89.944483 -7.7796402,85.154718 l -0.9100974,-3.664887 h -5.5718834 c -8.213231,0 -9.021188,-1.07564 -9.021188,-12.00998 0,-8.22114 0.09012,-8.63156 2.272108,-10.347915 1.741576,-1.369924 3.51567,-1.78724 7.597914,-1.78724 h 5.325806 l 1.1552162,-4.527213 c 0.6353689,-2.489967 2.8040306,-7.684544 4.8192483,-11.543506 l 3.664032,-7.016293 -4.2250623,-4.161532 c -2.7140978,-2.673286 -4.2250633,-4.896975 -4.2250633,-6.218027 0,-2.51088 10.5328755,-13.758506 13.6066383,-14.529972 1.6757836,-0.4205953 2.9386915,0.3447684 6.7027848,4.062103 l 4.637955,4.580344 7.144233,-3.579322 C 29.12233,12.442652 34.37448,10.365367 36.864448,9.7950889 L 41.39166,8.7582201 V 2.5014636 c 0,-5.7321816 0.190497,-6.4066008 2.272108,-8.0439966 1.912526,-1.5043933 3.488145,-1.7872402 9.955949,-1.7872402 7.008384,0 7.869906,0.1860639 9.800456,2.116619 1.846714,1.84671 2.116623,2.8913577 2.116623,8.1920991 0,4.7611326 0.273305,6.0754808 1.263351,6.0754808 2.199182,0 9.30588,2.6203573 15.446471,5.6953673 l 5.930743,2.969926 4.581134,-4.332646 c 2.60846,-2.466973 5.387936,-4.3326473 6.454762,-4.3326473 2.537883,0 14.613813,12.0759283 14.613813,14.6138063 0,1.067503 -1.86918,3.850012 -4.34441,6.467205 l -4.34442,4.593574 3.01926,5.012093 c 1.66058,2.756651 3.89868,7.84518 4.97354,11.307842 l 1.9543,6.29575 h 5.44634 c 4.63277,0 5.76253,0.316181 7.56296,2.116619 1.93056,1.930555 2.11662,2.792076 2.11662,9.80046 0,10.437962 -1.19432,12.047149 -9.20684,12.404971 l -5.69318,0.254248 -1.17772,4.742795 c -0.64774,2.608537 -2.76798,7.987159 -4.71165,11.952489 l -3.53393,7.209702 4.08126,4.14356 c 3.27162,3.32157 3.97856,4.55274 3.56358,6.20616 -0.75671,3.01497 -12.01787,13.6044 -14.467377,13.6044 -1.200703,0 -3.550603,-1.52872 -5.904546,-3.84119 l -3.910089,-3.84118 -4.742795,2.94063 c -2.608537,1.61734 -7.94418,3.98496 -11.856986,5.26136 l -7.114191,2.32073 v 4.49982 c 0,3.24661 -0.497752,5.1326 -1.787241,6.77192 -1.716356,2.182 -2.126772,2.27211 -10.347915,2.27211 -7.410907,0 -8.792309,-0.23164 -10.285327,-1.72465 z M 64.22374,113.79593 C 75.033707,110.98029 83.268983,105.53456 89.837141,96.858581 106.90522,74.3131 99.097456,41.277423 73.760232,28.835098 39.333762,11.929327 0.94444559,41.577508 8.7068867,79.07599 13.831595,103.83222 39.895711,120.13258 64.22374,113.79593 Z"
           id="path3277"
           transform="matrix(0.26458333,0,0,0.26458333,67.557005,81.627098)" />
        <path
           style="fill:#ffffff;stroke-width:0.862326"
           d="m 43.116313,144.43965 c -1.331777,-1.33178 -1.724653,-2.87442 -1.724653,-6.77193 v -5.04727 l -7.198843,-2.34175 c -3.959364,-1.28796 -9.295008,-3.61524 -11.856986,-5.17173 l -4.658143,-2.82997 -4.059107,3.75155 c -2.359452,2.18068 -4.8960397,3.75155 -6.0578656,3.75155 -2.7129103,0 -14.4593255,-11.78042 -14.4593255,-14.50119 0,-1.12627 1.6273037,-3.69661 3.8338534,-6.0556 l 3.83385428,-4.09869 -1.93915528,-3.41394 C -3.6023964,97.428466 -6.5902034,89.944483 -7.7796402,85.154718 l -0.9100974,-3.664887 h -5.5718834 c -8.213231,0 -9.021188,-1.07564 -9.021188,-12.00998 0,-8.22114 0.09012,-8.63156 2.272108,-10.347915 1.750553,-1.376985 3.514652,-1.78724 7.68514,-1.78724 h 5.4130312 l 0.5854419,-3.465199 c 0.3219926,-1.905859 2.4413138,-7.110375 4.7096017,-11.56559 l 4.1241599,-8.10039 -4.2026419,-4.139448 c -2.6966434,-2.656095 -4.2026419,-4.876384 -4.2026419,-6.195944 0,-2.51088 10.5328755,-13.758506 13.6066383,-14.529972 1.6757836,-0.4205953 2.9386915,0.3447684 6.7027848,4.062103 l 4.637955,4.580344 7.144233,-3.579322 C 29.12233,12.442652 34.37448,10.365367 36.864448,9.7950889 L 41.39166,8.7582201 V 2.5014636 c 0,-5.7321816 0.190497,-6.4066008 2.272108,-8.0439966 1.912526,-1.5043933 3.488145,-1.7872402 9.955949,-1.7872402 7.008384,0 7.869906,0.1860639 9.800456,2.116619 1.836703,1.8367014 2.116623,2.9004999 2.116623,8.0439963 v 5.927378 l 4.453837,1.0280679 c 2.44961,0.565439 7.548692,2.577092 11.331286,4.470342 l 6.877449,3.442272 4.570131,-4.322238 c 2.600732,-2.459665 5.377527,-4.3222383 6.443758,-4.3222383 2.537883,0 14.613813,12.0759283 14.613813,14.6138063 0,1.066209 -1.86246,3.842907 -4.32186,6.443355 l -4.32185,4.569724 2.9586,4.913252 c 1.62724,2.702288 3.85518,7.80155 4.95099,11.331692 l 1.99239,6.418441 h 5.44634 c 4.63277,0 5.76253,0.316181 7.56296,2.116619 1.93056,1.930555 2.11662,2.792076 2.11662,9.80046 0,6.467804 -0.28284,8.043422 -1.78724,9.955947 -1.59449,2.027071 -2.37592,2.272109 -7.24578,2.272109 h -5.45854 l -1.88786,6.251866 c -1.03832,3.438526 -3.27039,8.893929 -4.96016,12.123117 l -3.0723,5.871256 4.12554,4.18851 c 5.23823,5.3182 5.00263,6.4674 -2.88744,14.08462 -7.252888,7.00207 -8.688342,7.20709 -13.823814,1.97442 l -3.725957,-3.79647 -4.992455,2.926 c -2.745845,1.6093 -8.134798,3.96128 -11.975452,5.22664 l -6.983006,2.30065 v 4.48982 c 0,3.2365 -0.498899,5.12408 -1.787241,6.76193 -1.716356,2.182 -2.126772,2.27211 -10.347915,2.27211 -7.410907,0 -8.792309,-0.23164 -10.285327,-1.72465 z M 68.554938,112.59654 C 88.780998,105.41441 101.72857,83.901637 98.463827,62.90202 94.593094,38.004509 71.344011,20.692903 46.781199,24.418389 25.681586,27.618605 9.4645455,45.059751 7.9859811,66.141972 6.4079162,88.642931 20.081872,107.54084 42.507251,113.85163 c 6.297789,1.77227 19.28435,1.14653 26.047687,-1.25509 z"
           id="path3316"
           transform="matrix(0.26458333,0,0,0.26458333,67.557005,81.627098)" />
      </g>
    </g>
  </g>
</svg>
